<svg width="85" height="85" viewBox="0 0 85 85" fill="none" xmlns="http://www.w3.org/2000/svg">
<circle cx="42.5" cy="42.5" r="42.5" fill="#3579E2"/>
<rect x="13" y="41.1146" width="44.5531" height="45.2514" transform="rotate(-44.2965 13 41.1146)" fill="white"/>
<rect x="23.2018" y="40.9074" width="29.9206" height="30.9834" transform="rotate(-44.2965 23.2018 40.9074)" fill="#3579E2"/>
<path d="M48.0482 27.2621L50 15L52.0792 15.7382L54.1766 18.8636L52.541 31.4834L49.6305 28.6714L48.0482 27.2621Z" fill="#3579E2"/>
<path d="M36.8728 68.3118L37.4738 51L39.6837 51.5554L42.1837 55.3929L41.9466 73.127L38.6509 69.9011L36.8728 68.3118Z" fill="#3579E2"/>
<path d="M73.8813 54.0631L47.9529 48.3633L49.0638 46.3253L55.141 44.9652L81.7492 50.4268L76.4912 52.7598L73.8813 54.0631Z" fill="#3579E2"/>
<path d="M33.4742 36.9319L14.8658 35.3712L15.5272 33.3403L19.7282 31.228L38.8014 32.4733L35.2355 35.3637L33.4742 36.9319Z" fill="#3579E2"/>
</svg>
